<svg width="32" height="31" viewBox="0 0 32 31" fill="none" xmlns="http://www.w3.org/2000/svg">
<mask id="mask0_5_4350" style="mask-type:luminance" maskUnits="userSpaceOnUse" x="1" y="0" width="31" height="31">
<path d="M5.24573 0.236172H5.17932C3.66077 0.236172 2.8988 0.23617 2.49762 0.248735C2.07041 0.258608 1.73296 0.26579 1.42063 0.576321L1.26447 0.732484L1.09753 1.18123V1.84627L8.0827 8.83233L12.0137 8.8422C13.4156 8.84669 13.5341 6.7331 12.1349 6.63258C12.0918 6.62899 12.0478 6.6272 12.0029 6.6272H8.99634L4.80955 2.44131C10.418 2.42964 21.3952 2.45387 26.7146 2.45387C26.7882 2.45387 27.8499 2.48977 28.733 3.45457C29.0427 3.79292 29.5175 4.53874 29.5175 5.42905L29.4932 11.891C29.5309 13.1143 28.383 14.6472 26.8438 14.7791H24.4834C24.439 14.7788 24.396 14.7634 24.3615 14.7353C24.3271 14.7072 24.3033 14.6682 24.2941 14.6247C24.0158 13.3739 23.3221 12.2541 22.326 11.448C21.3298 10.6419 20.09 10.197 18.8086 10.1857H18.7404C15.7455 10.1857 13.1993 12.5964 13.0494 15.5895C13.0014 16.524 13.1845 17.456 13.5825 18.3029C13.9805 19.1497 14.5812 19.8854 15.3314 20.4448C16.0815 21.0041 16.958 21.3699 17.8833 21.5097C18.8085 21.6496 19.7539 21.5591 20.6359 21.2464L29.9016 30.5148C30.0344 30.6324 30.59 31.0587 31.2559 30.6387C31.4661 30.4963 31.6238 30.2888 31.7046 30.0481C31.8985 29.3301 31.5099 29.0052 31.1311 28.6274L21.5549 19.0503C21.4123 18.9062 21.2251 18.8147 21.0239 18.7905C20.8226 18.7664 20.6191 18.8111 20.4465 18.9174C20.4196 18.9336 20.3568 18.9677 20.3164 18.9892C19.9384 19.18 19.5292 19.3016 19.1084 19.3482C18.5217 19.4112 17.9287 19.3244 17.3847 19.0961C16.8406 18.8677 16.3633 18.5053 15.9974 18.0425C15.6314 17.5797 15.3887 17.0317 15.2919 16.4497C15.1951 15.8676 15.2474 15.2706 15.4439 14.7143C15.6404 14.1579 15.9746 13.6605 16.4155 13.2683C16.8563 12.8762 17.3894 12.6022 17.9648 12.4719C18.5402 12.3416 19.1393 12.3592 19.7061 12.5232C20.2729 12.6872 20.7888 12.9921 21.2058 13.4095C21.5299 13.73 21.7873 14.1115 21.9631 14.5321C22.1388 14.9527 22.2295 15.4039 22.2298 15.8597C22.2266 16.0132 22.2558 16.1657 22.3155 16.3072C22.3752 16.4487 22.464 16.576 22.5763 16.6809C22.7917 16.877 23.0738 16.9836 23.3652 16.9788H26.8411C29.3065 16.9788 31.7657 14.5556 31.7657 12.4151V5.25673C31.7657 1.88217 28.8192 0.452466 27.4514 0.285533C27.2418 0.256506 27.0302 0.244501 26.8187 0.249634C22.5179 0.244249 18.1193 0.23617 12.5558 0.234375H9.77626C8.04231 0.234375 6.49055 0.234375 5.25022 0.234375" fill="white"/>
</mask>
<g mask="url(#mask0_5_4350)">
<path d="M20.74 -14.5735L-13.7169 11.4011L12.2604 45.8616L46.7173 19.887L20.74 -14.5735Z" fill="white"/>
</g>
<mask id="mask1_5_4350" style="mask-type:luminance" maskUnits="userSpaceOnUse" x="1" y="11" width="18" height="18">
<path d="M1.3854 11.8198C1.28301 11.9222 1.20179 12.0437 1.14638 12.1774C1.09096 12.3112 1.06244 12.4545 1.06244 12.5993C1.06244 12.7441 1.09096 12.8874 1.14638 13.0212C1.20179 13.1549 1.28301 13.2764 1.3854 13.3788L16.1868 28.1604V28.1515C16.1868 28.1515 16.9335 28.909 17.7619 28.1963C18.0428 27.9549 18.2026 27.4478 18.0311 26.9937C17.9217 26.7092 17.6533 26.5198 17.5734 26.4292C17.56 26.4148 17.5474 26.3996 17.533 26.3852L2.94434 11.8198C2.84199 11.7175 2.72047 11.6362 2.58673 11.5808C2.45299 11.5254 2.30964 11.4969 2.16487 11.4969C2.0201 11.4969 1.87675 11.5254 1.743 11.5808C1.60926 11.6362 1.48775 11.7175 1.3854 11.8198Z" fill="white"/>
</mask>
<g mask="url(#mask1_5_4350)">
<path d="M11.9945 3.25427L-7.30481 17.8026L7.27595 37.1449L26.5752 22.5966L11.9945 3.25427Z" fill="white"/>
</g>
<mask id="mask2_5_4350" style="mask-type:luminance" maskUnits="userSpaceOnUse" x="0" y="17" width="10" height="10">
<path d="M0.555854 17.8033C0.34973 18.0104 0.234009 18.2906 0.234009 18.5828C0.234009 18.8749 0.34973 19.1552 0.555854 19.3623L7.82552 26.6319V26.6122C7.82552 26.6122 8.43672 27.2763 9.27946 26.6876C9.4895 26.5234 9.63375 26.2893 9.68602 26.0279C9.74436 25.3261 9.46165 25.1439 9.1206 24.8019L2.12018 17.8015C1.91325 17.5952 1.63294 17.4793 1.34071 17.4793C1.04848 17.4793 0.768171 17.5952 0.561239 17.8015" fill="white"/>
</mask>
<g mask="url(#mask2_5_4350)">
<path d="M6.25913 12.8553L-4.57983 21.0261L3.61195 31.893L14.4509 23.7223L6.25913 12.8553Z" fill="white"/>
</g>
<mask id="mask3_5_4350" style="mask-type:luminance" maskUnits="userSpaceOnUse" x="17" y="14" width="3" height="4">
<path d="M17.6337 15.8925C17.6335 16.1118 17.6984 16.3262 17.8201 16.5086C17.9418 16.691 18.1149 16.8332 18.3175 16.9172C18.5201 17.0012 18.743 17.0233 18.9581 16.9805C19.1732 16.9378 19.3708 16.8322 19.5258 16.6771C19.6809 16.5221 19.7865 16.3245 19.8292 16.1094C19.872 15.8943 19.8499 15.6714 19.7659 15.4688C19.6819 15.2662 19.5397 15.0931 19.3573 14.9714C19.1749 14.8497 18.9605 14.7848 18.7412 14.785C18.4474 14.785 18.1657 14.9017 17.958 15.1094C17.7504 15.3171 17.6337 15.5988 17.6337 15.8925Z" fill="white"/>
</mask>
<g mask="url(#mask3_5_4350)">
<path d="M19.0192 13.8756L16.5364 15.7377L18.3985 18.2205L20.8813 16.3584L19.0192 13.8756Z" fill="white"/>
</g>
</svg>
